<svg xmlns="http://www.w3.org/2000/svg" width="1200" height="630" viewBox="0 0 1200 630" role="img" aria-label="Nimish Bongale AI ML Engineer Open Graph card">
  <defs>
    <linearGradient id="bg" x1="0" y1="0" x2="1" y2="1">
      <stop offset="0%" stop-color="#e7ebde"/>
      <stop offset="100%" stop-color="#f4f6ef"/>
    </linearGradient>
    <radialGradient id="a1" cx="0" cy="0" r="1" gradientTransform="translate(170 80) rotate(8) scale(500 420)">
      <stop offset="0%" stop-color="#cc7a2f" stop-opacity="0.32"/>
      <stop offset="100%" stop-color="#cc7a2f" stop-opacity="0"/>
    </radialGradient>
    <radialGradient id="a2" cx="0" cy="0" r="1" gradientTransform="translate(1060 380) rotate(15) scale(420 360)">
      <stop offset="0%" stop-color="#0b8f7f" stop-opacity="0.26"/>
      <stop offset="100%" stop-color="#0b8f7f" stop-opacity="0"/>
    </radialGradient>
  </defs>

  <rect width="1200" height="630" fill="url(#bg)"/>
  <rect width="1200" height="630" fill="url(#a1)"/>
  <rect width="1200" height="630" fill="url(#a2)"/>

  <g opacity="0.16" stroke="#14231d" stroke-width="1">
    <path d="M0 70H1200"/>
    <path d="M0 150H1200"/>
    <path d="M0 230H1200"/>
    <path d="M0 310H1200"/>
    <path d="M0 390H1200"/>
    <path d="M0 470H1200"/>
    <path d="M0 550H1200"/>
    <path d="M120 0V630"/>
    <path d="M280 0V630"/>
    <path d="M440 0V630"/>
    <path d="M600 0V630"/>
    <path d="M760 0V630"/>
    <path d="M920 0V630"/>
    <path d="M1080 0V630"/>
  </g>

  <text x="90" y="168" fill="#0b8f7f" font-family="IBM Plex Mono, monospace" font-size="32" letter-spacing="2">AI ML ENGINEER | LLM PRODUCTS | MLOPS</text>
  <text x="90" y="300" fill="#14231d" font-family="Sora, Arial, sans-serif" font-size="76" font-weight="800">Nimish Bongale</text>
  <text x="90" y="390" fill="#355247" font-family="Sora, Arial, sans-serif" font-size="40" font-weight="500">Building intelligent products that move metrics.</text>

  <g transform="translate(90 470)">
    <rect width="300" height="66" rx="33" fill="#14231d"/>
    <text x="150" y="43" fill="#edf2e9" text-anchor="middle" font-family="Sora, Arial, sans-serif" font-size="28" font-weight="600">nimishbongale.dev</text>
  </g>
</svg>
